<svg width="170" height="150" viewBox="0 0 170 150" fill="none" xmlns="http://www.w3.org/2000/svg">
<g clip-path="url(#clip0_19_14)">
<path d="M3.3 60.9H1.3V62.9H3.3V60.9ZM3.3 12.9V10.9H1.3V12.9H3.3ZM89.1 12.9H91.1V10.9H89.1V12.9ZM89.1 225V227H91.1V225H89.1ZM35.1 225H33.1V227H35.1V225ZM35.1 60.9H37.1V58.9H35.1V60.9ZM5.3 60.9V12.9H1.3V60.9H5.3ZM3.3 14.9H89.1V10.9H3.3V14.9ZM87.1 12.9V225H91.1V12.9H87.1ZM89.1 223H35.1V227H89.1V223ZM37.1 225V60.9H33.1V225H37.1ZM35.1 58.9H3.3V62.9H35.1V58.9Z" fill="#808080"/>
</g>
<defs>
<clipPath id="clip0_19_14">
<rect width="170" height="150" fill="white"/>
</clipPath>
</defs>
</svg>
