<svg width="60" height="60" viewBox="0 0 60 60" fill="none" xmlns="http://www.w3.org/2000/svg">
<g clip-path="url(#clip0_61_51)">
<path d="M40.25 7.5C39.9148 9.14982 39.9148 10.8502 40.25 12.5H11.2775L30.1525 29.155L42.775 17.855C43.84 19.1725 45.17 20.27 46.6825 21.0675L30.18 35.845L10 18.04V47.5H50V22.25C51.6498 22.5852 53.3502 22.5852 55 22.25V50C55 50.663 54.7366 51.2989 54.2678 51.7678C53.7989 52.2366 53.163 52.5 52.5 52.5H7.5C6.83696 52.5 6.20107 52.2366 5.73223 51.7678C5.26339 51.2989 5 50.663 5 50V10C5 9.33696 5.26339 8.70107 5.73223 8.23223C6.20107 7.76339 6.83696 7.5 7.5 7.5H40.25ZM52.5 17.5C51.5151 17.5 50.5398 17.306 49.6299 16.9291C48.7199 16.5522 47.8931 15.9997 47.1967 15.3033C46.5003 14.6069 45.9478 13.7801 45.5709 12.8701C45.194 11.9602 45 10.9849 45 10C45 9.01509 45.194 8.03982 45.5709 7.12987C45.9478 6.21993 46.5003 5.39314 47.1967 4.6967C47.8931 4.00026 48.7199 3.44781 49.6299 3.0709C50.5398 2.69399 51.5151 2.5 52.5 2.5C54.4891 2.5 56.3968 3.29018 57.8033 4.6967C59.2098 6.10322 60 8.01088 60 10C60 11.9891 59.2098 13.8968 57.8033 15.3033C56.3968 16.7098 54.4891 17.5 52.5 17.5Z" fill="#FD8558"/>
</g>
<defs>
<clipPath id="clip0_61_51">
<rect width="60" height="60" fill="white"/>
</clipPath>
</defs>
</svg>
