<svg width="60" height="60" viewBox="0 0 60 60" fill="none" xmlns="http://www.w3.org/2000/svg">
<g clip-path="url(#clip0_61_59)">
<path d="M30 55C16.1925 55 5 43.8075 5 30C5 16.1925 16.1925 5 30 5C43.8075 5 55 16.1925 55 30C55 43.8075 43.8075 55 30 55ZM24.275 49.1675C21.8085 43.9358 20.3797 38.2755 20.0675 32.5H10.155C10.6415 36.3472 12.2348 39.9704 14.7414 42.9293C17.248 45.8881 20.56 48.0553 24.275 49.1675V49.1675ZM25.075 32.5C25.4525 38.5975 27.195 44.325 30 49.38C32.8808 44.1914 34.5636 38.4237 34.925 32.5H25.075V32.5ZM49.845 32.5H39.9325C39.6203 38.2755 38.1915 43.9358 35.725 49.1675C39.44 48.0553 42.752 45.8881 45.2586 42.9293C47.7652 39.9704 49.3585 36.3472 49.845 32.5V32.5ZM10.155 27.5H20.0675C20.3797 21.7245 21.8085 16.0642 24.275 10.8325C20.56 11.9447 17.248 14.1119 14.7414 17.0707C12.2348 20.0296 10.6415 23.6528 10.155 27.5V27.5ZM25.0775 27.5H34.9225C34.5619 21.5765 32.8799 15.8088 30 10.62C27.1192 15.8086 25.4364 21.5763 25.075 27.5H25.0775ZM35.725 10.8325C38.1915 16.0642 39.6203 21.7245 39.9325 27.5H49.845C49.3585 23.6528 47.7652 20.0296 45.2586 17.0707C42.752 14.1119 39.44 11.9447 35.725 10.8325V10.8325Z" fill="#706DF9"/>
</g>
<defs>
<clipPath id="clip0_61_59">
<rect width="60" height="60" fill="white"/>
</clipPath>
</defs>
</svg>
