<svg width="120" height="120" viewBox="0 0 120 120" fill="none" xmlns="http://www.w3.org/2000/svg">
<path fill-rule="evenodd" clip-rule="evenodd" d="M58.6718 0.55998C57.8975 1.33429 57.7938 2.15362 57.8846 6.7901L57.9634 10.8281L58.6214 11.3938C58.9881 11.7092 59.5788 11.9594 59.9566 11.9594C60.3344 11.9594 60.9251 11.7092 61.2918 11.3938L61.9498 10.8281L62.0286 6.7901C62.072 4.56894 62.0387 2.3846 61.9545 1.93601C61.7503 0.847004 60.8763 0 59.9566 0C59.5052 0 59.0205 0.211282 58.6718 0.55998ZM36.0041 6.44703C35.3266 6.82106 34.8035 7.98487 35.0253 8.62434C35.4108 9.73539 39.4871 16.5128 39.9535 16.8186C40.6607 17.282 42.0025 17.0348 42.4797 16.3534C43.1502 15.3962 42.9072 14.5752 40.9056 11.0373C39.8428 9.15853 38.7083 7.33484 38.3847 6.98474C37.6521 6.1919 36.8105 6.00172 36.0041 6.44703ZM81.6727 6.85905C80.5893 7.96189 77.0749 14.2971 77.0749 15.1474C77.0749 15.5291 77.2362 16.0717 77.4334 16.3534C77.9106 17.0348 79.2524 17.282 79.9597 16.8186C80.4303 16.5103 84.501 9.73609 84.8954 8.60464C85.125 7.94618 84.4461 6.59289 83.7541 6.33002C82.7903 5.9635 82.4735 6.04393 81.6727 6.85905ZM57.3771 16.0928C50.8862 16.9192 46.6252 18.4681 41.6423 21.8122C39.5539 23.2141 34.9505 27.8855 33.4563 30.1195C31.2302 33.448 29.4487 37.7444 28.492 42.0923C28.2924 42.9986 28.1848 45.1262 28.189 48.0719C28.1951 52.2282 28.2523 52.8688 28.8165 55.1069C30.5279 61.8935 32.9491 66.1296 37.9788 71.1376C39.6449 72.7962 41.1773 74.5373 41.3839 75.0068C41.6538 75.6193 41.8006 76.9512 41.9038 79.7291C42.0274 83.0531 42.1186 83.735 42.5513 84.5677C43.1394 85.7006 44.2474 86.8662 45.2081 87.3631C45.8173 87.6781 45.8867 87.8324 45.8867 88.8689C45.8867 90.5399 46.3091 92.2576 46.953 93.2068L47.5142 94.0334L46.953 94.86C46.265 95.874 45.8272 97.7948 46.0249 98.9318C46.106 99.3975 46.4653 100.31 46.8233 100.959C47.468 102.126 47.4701 102.144 47.0309 102.687C46.7868 102.988 46.4179 103.817 46.2111 104.529C45.2895 107.699 47.3015 111.069 50.5851 111.857C52.5781 112.335 53.8597 111.642 53.8597 110.086C53.8597 109.13 53.0091 108.103 52.2172 108.103C51.3747 108.103 50.4039 107.445 50.1431 106.697C49.8573 105.877 49.9771 105.395 50.6524 104.644C51.1128 104.133 51.2624 104.117 55.507 104.117C60.0396 104.117 61.1919 103.938 61.603 103.17C62.0202 102.39 61.871 101.186 61.2899 100.64C60.7729 100.155 60.5405 100.13 56.4004 100.13C53.7619 100.13 51.7536 100.026 51.29 99.8642C50.3713 99.5439 49.7595 98.3477 50.0824 97.5035C50.564 96.2436 50.8065 96.1852 55.8932 96.1031C60.5269 96.0283 60.6357 96.0152 61.228 95.4582C62.0237 94.7099 62.0605 93.39 61.3049 92.6841C60.8116 92.2231 60.4737 92.1863 56.0874 92.1157C50.859 92.0315 50.5089 91.9382 50.0812 90.516C49.9454 90.0645 49.8695 89.3259 49.9124 88.8745L49.9905 88.0537L55.3736 87.9907C60.5182 87.9302 60.7806 87.9051 61.2946 87.422C62.0603 86.7028 62.0288 85.3887 61.2278 84.6357L60.623 84.0673L53.8697 83.9955L47.1165 83.924L46.5602 83.3321C46.0333 82.7714 45.9974 82.5351 45.8783 78.8312C45.7566 75.0525 45.7275 74.8687 45.006 73.328C44.3867 72.0057 43.7453 71.2267 41.2411 68.7553C37.8913 65.4496 36.5251 63.6597 35.0023 60.581C32.7992 56.1269 31.9372 52.0364 32.1192 46.8995C32.3051 41.6477 33.5205 37.6511 36.3094 33.1192C37.8712 30.5815 41.7594 26.5826 44.3431 24.8569C47.6352 22.6583 51.7557 21.0255 55.579 20.405C57.7561 20.0516 62.6873 20.1164 64.8498 20.5265C73.6353 22.1931 81.0536 27.8564 85.1118 35.9953C88.1833 42.1549 88.7275 49.9864 86.5495 56.6843C85.0436 61.3161 82.9952 64.4682 78.782 68.6378C76.1765 71.2164 75.5291 72 74.9072 73.3278C74.1857 74.8687 74.1566 75.0525 74.0349 78.8312C73.915 82.5604 73.8829 82.7682 73.3408 83.3453C72.7808 83.9409 72.721 83.95 69.4054 83.95C65.593 83.95 64.5694 84.2094 64.163 85.278C63.887 86.004 63.9928 86.6559 64.4995 87.3502C64.7945 87.7548 65.1915 87.8354 67.3822 87.9365L69.9227 88.0537L70.0008 88.8745C70.1087 90.0097 69.6852 91.2746 69.0696 91.6566C68.7861 91.8324 67.7156 92.0482 66.6907 92.1363C64.75 92.3031 64.3227 92.5533 64.0371 93.6908C63.6713 95.1477 65.0419 96.1439 67.4122 96.1439C68.5397 96.1439 68.8708 96.2384 69.2607 96.6715C69.9656 97.4547 70.0714 97.9596 69.7112 98.8221C69.3191 99.7601 68.4191 100.13 66.5317 100.13C65.5221 100.13 65.0818 100.244 64.6937 100.606C64.0087 101.244 63.834 102.067 64.2151 102.862C64.6547 103.778 65.4555 104.109 67.2438 104.113C68.5432 104.116 68.8605 104.2 69.2607 104.644C69.9361 105.395 70.0559 105.877 69.7701 106.697C69.3173 107.996 68.7774 108.103 62.6969 108.103H57.2066L56.5883 108.721C55.8088 109.501 55.7896 110.447 56.5355 111.314L57.1009 111.972L61.3514 112.09L65.6021 112.207L64.9024 113.309C62.8644 116.519 58.6866 116.903 55.5516 114.169C54.0984 112.901 51.9837 113.611 51.9837 115.367C51.9837 117.07 55.3508 119.397 58.5273 119.888C63.4279 120.647 68.2702 117.463 69.5527 112.639C69.7513 111.892 69.9668 111.61 70.4754 111.433C72.0979 110.868 73.5436 108.896 73.8998 106.764C74.0895 105.627 73.5846 103.63 72.8781 102.723C72.4349 102.154 72.4365 102.142 73.0866 100.964C73.4465 100.312 73.8072 99.3975 73.8883 98.9318C74.086 97.7948 73.6482 95.874 72.9602 94.86L72.399 94.0334L72.9602 93.2068C73.6041 92.2576 74.0264 90.5399 74.0264 88.8689C74.0264 87.8324 74.0958 87.6781 74.7051 87.3631C75.6658 86.8662 76.7738 85.7006 77.3619 84.5677C77.7946 83.735 77.8858 83.0531 78.0094 79.7291C78.1132 76.9341 78.2586 75.6207 78.5328 74.9981C78.7443 74.5179 80.2514 72.8046 81.9365 71.1289C87.559 65.5378 90.1906 60.5922 91.5204 53.1179C91.927 50.8313 91.9727 46.0105 91.6102 43.6165C89.5372 29.9258 78.7701 18.8695 65.2328 16.5311C63.0276 16.1503 58.786 15.9137 57.3771 16.0928ZM19.2279 23.208C18.1284 23.6702 17.8521 25.4556 18.7437 26.3383C19.7382 27.3227 26.3208 30.9536 27.1113 30.9536C28.729 30.9536 29.5643 29.0284 28.4753 27.81C27.8234 27.0809 21.185 23.2258 20.3491 23.0909C20.0142 23.037 19.5098 23.0895 19.2279 23.208ZM99.1289 23.1519C98.023 23.5871 91.8743 27.3222 91.4139 27.8381C90.3564 29.023 91.2392 30.9536 92.8387 30.9536C93.5931 30.9536 100.21 27.2875 101.169 26.3383C101.689 25.8242 101.854 24.8342 101.551 24.0465C101.277 23.3318 99.933 22.8353 99.1289 23.1519ZM47.0128 40.6597C45.377 41.3325 44.3555 42.1589 43.3976 43.5846C42.3829 45.095 42.0424 46.271 42.0513 48.2361C42.0651 51.2862 43.8497 53.9419 46.7966 55.2982C47.9278 55.8188 48.5204 55.9187 50.9786 56.0029L53.8428 56.1009L53.9098 67.4274L53.9769 78.7538L54.5453 79.3586C55.2505 80.109 56.3629 80.1582 57.2282 79.4775L57.8461 78.9916V67.5181V56.0449H59.9566H62.0671V67.5181V78.9916L62.685 79.4775C63.5503 80.1582 64.6627 80.109 65.3678 79.3586L65.9363 78.7538L66.0033 67.4274L66.0704 56.1009L68.9346 56.0029C71.3928 55.9187 71.9854 55.8188 73.1166 55.2982C74.9482 54.4552 76.238 53.2079 77.1105 51.4353C77.7329 50.1709 77.8555 49.6494 77.8619 48.2361C77.8708 46.2733 77.5319 45.1006 76.5156 43.5762C73.8625 39.5965 68.2425 38.9038 64.6698 42.1159C63.9902 42.7268 63.2217 43.7319 62.8409 44.5069C62.2525 45.7054 62.1721 46.1608 62.0671 48.8927L61.9498 51.9412H59.9566H57.9634L57.8461 48.8927C57.7411 46.1608 57.6606 45.7054 57.0723 44.5069C55.2629 40.8227 50.7828 39.1092 47.0128 40.6597ZM52.1483 44.7015C53.5579 45.7539 53.7361 46.2401 53.8207 49.2606L53.8988 52.0584L51.593 52.0532C49.8573 52.0495 49.0504 51.9407 48.3304 51.6138C45.3446 50.2575 45.2074 46.3292 48.083 44.5217C49.0457 43.9164 51.226 44.013 52.1483 44.7015ZM71.8301 44.5355C74.7053 46.2886 74.5665 50.2586 71.5827 51.6138C70.8645 51.9397 70.0564 52.0495 68.3399 52.0532L66.0535 52.0584V49.6114C66.0535 47.0064 66.2474 46.1777 67.0658 45.2868C68.1872 44.0656 70.4696 43.7056 71.8301 44.5355ZM13.1558 46.2942C12.2223 46.7006 11.7679 47.7343 12.1177 48.6547C12.5865 49.8872 12.7912 49.9324 17.9335 49.9404C22.6786 49.9479 22.6945 49.9463 23.2683 49.3722C24.2956 48.3451 23.9425 46.7238 22.5784 46.2051C21.6064 45.8355 14.0451 45.9071 13.1558 46.2942ZM97.263 46.2171C95.9676 46.7351 95.6466 48.374 96.6449 49.3722C97.2187 49.9463 97.2346 49.9479 101.98 49.9404C107.166 49.9324 107.36 49.8874 107.811 48.5925C108.147 47.6285 107.606 46.5742 106.594 46.2213C105.676 45.9014 98.0612 45.8979 97.263 46.2171ZM26.0717 65.3195C23.8009 66.5213 19.503 69.0735 18.9104 69.5721C17.5229 70.7396 18.2763 72.9287 20.0658 72.9287C20.9065 72.9287 27.8497 69.0803 28.5926 68.2026C29.157 67.5359 29.1066 66.5051 28.4753 65.7983C27.7836 65.0242 26.9452 64.8573 26.0717 65.3195ZM92.1664 65.1832C90.9977 65.6665 90.5442 67.2855 91.3206 68.2026C91.5462 68.4692 93.3851 69.6417 95.407 70.8081C99.4469 73.1385 100.269 73.3629 101.187 72.386C101.881 71.6476 101.87 70.359 101.166 69.6968C100.481 69.0541 93.8562 65.2259 93.1818 65.0836C92.8997 65.024 92.4429 65.069 92.1664 65.1832Z" fill="#FD8558"/>
</svg>
