<svg width="120" height="120" viewBox="0 0 120 120" fill="none" xmlns="http://www.w3.org/2000/svg">
<g clip-path="url(#clip0_26_36)">
<path fill-rule="evenodd" clip-rule="evenodd" d="M57.7188 0.305445C53.9932 1.52185 51.7289 4.58068 51.7076 8.42628C51.6996 9.86747 51.8179 10.4531 52.3618 11.6602C53.1933 13.5059 55.251 15.4957 56.9519 16.0994L58.1213 16.5143V19.7106V22.9069L56.4225 23.0646C49.3759 23.719 42.282 26.6103 36.7212 31.0946L34.9296 32.5393L30.9767 28.5844L27.0237 24.6295L27.5549 23.7432C29.0611 21.2304 29.7065 18.959 29.7065 16.1696C29.7065 12.2303 28.4858 9.27123 25.7345 6.54114C22.8026 3.63177 19.9609 2.47122 15.8513 2.5043C12.1245 2.53457 8.99648 3.86032 6.37479 6.52119C3.70027 9.23604 2.43992 12.2287 2.40986 15.9349C2.37675 20.0412 3.53824 22.8806 6.44994 25.8102C9.25057 28.628 12.0416 29.7712 16.1326 29.7762C18.7623 29.7794 21.3105 29.1065 23.198 27.91C23.8159 27.5184 24.3962 27.1979 24.487 27.1979C24.5782 27.1979 26.4132 28.9547 28.5649 31.1019L32.477 35.0062L31.1098 36.6747C29.5066 38.6314 27.1233 42.3548 27.1233 42.9027C27.1233 43.4623 27.7956 44.3263 28.4135 44.5611C29.4479 44.9539 29.9105 44.5677 31.7481 41.7757C33.0439 39.8072 34.3012 38.2919 36.2632 36.3345C41.1971 31.4119 46.5717 28.5002 53.4247 27.0374C56.2596 26.4322 63.7404 26.4322 66.5753 27.0374C73.4318 28.5009 78.809 31.4147 83.7328 36.3345C87.7162 40.3145 90.2384 44.3359 91.9099 49.3718C93.2104 53.2892 93.4638 55.0308 93.4638 60.0482C93.4638 65.0656 93.2104 66.8071 91.9099 70.7245C90.2384 75.7605 87.7162 79.7818 83.7328 83.7619C79.7495 87.7422 75.7249 90.2623 70.6849 91.9325C66.7644 93.2319 65.0214 93.4851 60 93.4851C54.9785 93.4851 53.2356 93.2319 49.3151 91.9325C44.2767 90.2627 40.2517 87.7426 36.2658 83.7619C31.0922 78.5955 27.9654 72.616 26.7856 65.6334C26.0635 61.3596 26.3718 55.0294 27.4854 51.265C28.0072 49.5016 27.9344 48.6684 27.209 48.0984C25.846 47.027 24.7336 47.8497 24.0601 50.4277C23.4942 52.594 22.8984 56.1092 22.8972 57.2911L22.8963 58.171H19.6638H16.4311L16.0159 57.0025C15.4117 55.303 13.4203 53.247 11.5731 52.4161C10.3651 51.8727 9.77894 51.7544 8.33659 51.7624C4.95006 51.7812 2.25886 53.4594 0.770489 56.4802C0.0824266 57.8765 0 58.2578 0 60.0433C0 61.7179 0.101448 62.259 0.624658 63.3743C1.87209 66.033 4.08939 67.737 6.99851 68.2727C8.6144 68.5703 10.452 68.2666 12.1155 67.4268C13.5598 66.6978 15.503 64.5362 16.0189 63.085L16.4311 61.9254H19.63H22.8286L22.9839 63.7438C23.5742 70.6609 26.7029 78.145 31.3238 83.6931L32.4829 85.0846L28.5677 88.9917C26.4143 91.1403 24.5782 92.8985 24.487 92.8985C24.3962 92.8985 23.8159 92.578 23.198 92.1863C21.3105 90.9899 18.7623 90.3169 16.1326 90.3202C14.88 90.3216 13.2787 90.4763 12.5742 90.6635C8.12383 91.8471 4.32188 95.4944 2.90701 99.9379C2.23092 102.061 2.22975 105.786 2.90466 107.916C4.61683 113.319 9.75875 117.386 15.1371 117.592C17.0574 117.666 17.7299 117.246 17.7299 115.975C17.7299 114.836 17.0891 114.318 15.4596 114.14C13.8547 113.964 11.5672 113.216 10.5675 112.541C3.81205 107.976 4.52102 98.1752 11.8591 94.6811C13.2916 93.9992 13.5518 93.9544 16.0861 93.9544C18.6387 93.9544 18.8738 93.9957 20.3775 94.7074C22.4672 95.6964 24.3231 97.5508 25.313 99.6389C26.0252 101.141 26.0665 101.376 26.0665 103.927C26.0665 106.491 26.028 106.706 25.2939 108.255C24.7179 109.471 24.0761 110.313 22.7695 111.569C20.8434 113.42 20.5489 114.252 21.4873 115.19C22.5135 116.215 23.9291 115.598 26.1807 113.142C28.5717 110.535 29.7065 107.569 29.7065 103.927C29.7065 101.137 29.0611 98.866 27.5549 96.3532L27.0237 95.4669L30.9835 91.5052L34.9435 87.5432L36.3757 88.7371C39.6984 91.5059 43.869 93.7977 48.2482 95.2607C50.8887 96.1427 55.6631 97.1221 57.3227 97.1221H58.1213V100.352V103.582L56.9519 103.997C55.251 104.601 53.1933 106.59 52.3618 108.436C51.8179 109.643 51.6996 110.229 51.7076 111.67C51.7263 115.054 53.4059 117.743 56.4291 119.23C57.8266 119.918 58.2082 120 59.9951 120C61.6711 120 62.2126 119.899 63.3288 119.376C65.9897 118.129 67.695 115.914 68.2312 113.007C68.5289 111.393 68.2251 109.556 67.3846 107.894C66.655 106.451 64.4917 104.509 63.0392 103.994L61.8787 103.582V100.352V97.1221H62.6773C64.3364 97.1221 69.1111 96.1427 71.7501 95.2611C76.2073 93.7721 80.953 91.133 84.0124 88.4424L85.0462 87.5329L89.0114 91.5L92.9763 95.4669L92.4451 96.3532C90.9522 98.8435 90.2935 101.138 90.2935 103.847C90.2935 107.917 91.4675 110.789 94.2615 113.555C97.2012 116.466 100.041 117.625 104.149 117.592C107.876 117.562 111.004 116.236 113.625 113.575C116.3 110.86 117.56 107.868 117.59 104.161C117.623 100.055 116.462 97.2157 113.55 94.2862C110.748 91.4676 107.959 90.3251 103.864 90.3202C101.234 90.3169 98.8713 90.9411 96.8816 92.1645C96.225 92.5681 95.6111 92.8985 95.5177 92.8985C95.424 92.8985 93.5833 91.138 91.4271 88.9865L87.5068 85.0743L88.4541 84.0003C91.0781 81.0245 93.7738 76.1744 95.2412 71.7889C96.1235 69.1519 97.1037 64.3811 97.1037 62.7234V61.9254H100.336H103.569L103.984 63.0939C104.588 64.7934 106.58 66.8494 108.427 67.6803C109.635 68.2237 110.221 68.342 111.663 68.334C115.05 68.3152 117.741 66.637 119.23 63.6162C119.918 62.2189 120 61.8392 120 60.0482C120 58.2571 119.918 57.8775 119.23 56.4802C117.739 53.4554 115.053 51.7826 111.65 51.7608C110.145 51.7509 109.645 51.8579 108.362 52.4642C106.174 53.4983 104.257 55.6197 103.787 57.5258L103.628 58.171H100.366H97.1037V57.373C97.1037 55.7152 96.1235 50.9444 95.2412 48.3075C93.7738 43.922 91.0781 39.0719 88.4541 36.0961L87.5068 35.0221L91.4271 31.1099C93.5833 28.9584 95.424 27.1979 95.5177 27.1979C95.6111 27.1979 96.225 27.5283 96.8816 27.9319C99.5537 29.5748 104.239 30.3764 105.169 29.3498C105.695 28.7695 105.671 27.3732 105.128 26.8816C104.87 26.6483 103.956 26.3984 102.848 26.2581C99.1912 25.7949 96.2142 23.6789 94.687 20.4575C93.9748 18.955 93.9335 18.7202 93.9335 16.1696C93.9335 13.619 93.9748 13.3841 94.687 11.8817C96.984 7.03624 102.721 4.73836 107.671 6.68122C114.733 9.45355 116.334 18.7664 110.617 23.8134C109.793 24.5405 109.053 25.3996 108.971 25.7222C108.79 26.4433 109.349 27.3678 110.149 27.6719C111.04 28.0102 111.799 27.5869 113.641 25.7245C116.457 22.8785 117.623 19.9884 117.59 15.9349C117.56 12.2287 116.3 9.23604 113.625 6.52119C110.922 3.77749 107.863 2.5158 103.914 2.5158C99.8238 2.5158 96.7414 3.84483 93.933 6.81896C91.4538 9.4444 90.3013 12.3742 90.2964 16.0616C90.2926 18.9567 90.9196 21.1985 92.4451 23.7432L92.9763 24.6295L89.0114 28.5964L85.0462 32.5635L84.0124 31.654C80.953 28.9634 76.2073 26.3243 71.7501 24.8352C69.1111 23.9537 64.3364 22.9743 62.6773 22.9743H61.8787V19.7444V16.5143L63.0481 16.0994C64.749 15.4957 66.8067 13.5059 67.6382 11.6602C68.9408 8.76886 68.3622 5.22173 66.1952 2.81333C64.1286 0.516861 60.4265 -0.578697 57.7188 0.305445ZM62.6764 4.36973C65.0445 6.03243 65.5014 9.17104 63.6944 11.3612C61.2178 14.3635 56.2772 13.2494 55.3259 9.47443C54.7362 7.13409 56.2201 4.46007 58.517 3.72375C59.705 3.34269 61.6429 3.64374 62.6764 4.36973ZM18.9041 6.36304C21.6721 7.17984 24.05 9.24308 25.3393 11.946C26.0217 13.3773 26.0665 13.6373 26.0665 16.1696C26.0665 18.7202 26.0252 18.955 25.313 20.4575C24.3231 22.5456 22.4672 24.4 20.3775 25.389C18.8738 26.1007 18.6387 26.142 16.0861 26.142C13.5518 26.142 13.2916 26.0972 11.8591 25.4153C6.91162 23.0594 4.62411 17.4158 6.59014 12.4152C8.49417 7.57287 13.9376 4.89768 18.9041 6.36304ZM70.9014 35.7432C69.7076 36.2627 68.4373 37.5417 67.781 38.8848L67.1624 40.1515L58.1563 43.8816L49.1504 47.612H45.801C43.9587 47.612 41.9115 47.7143 41.2511 47.8394C39.6625 48.1404 38.2774 49.0898 37.5011 50.4094C36.8799 51.4649 36.8675 51.5667 36.7893 56.2291C36.6805 62.722 37.0582 64.2047 39.1479 65.491L40.0265 66.0316L40.0384 71.8978C40.045 75.1241 40.1465 78.1785 40.2641 78.6851C40.7981 80.9858 43.1352 82.8111 45.5411 82.8064C47.0841 82.8036 48.9353 81.9479 49.7732 80.8502C50.9037 79.3693 51.0763 78.2874 51.0763 72.6817C51.0763 69.8629 51.1557 67.5545 51.2524 67.5514C51.3492 67.5486 55.0478 69.0475 59.4716 70.8827C64.3895 72.9227 67.5147 74.3416 67.5147 74.5345C67.5147 75.1856 68.4709 76.6859 69.3835 77.4664C70.8803 78.7466 72.8315 79.1319 74.9119 78.5582C76.1749 78.2097 78.1761 76.2101 78.5249 74.9482C78.6674 74.4319 78.7867 72.3729 78.79 70.3726L78.7961 66.7356L80.4695 65.9497C83.4641 64.5438 85.5342 61.7909 86.0698 58.503C86.7412 54.3803 84.2532 49.8871 80.3598 48.1925L78.8233 47.5235L78.7461 43.4029C78.6831 40.0517 78.5934 39.1444 78.2649 38.5444C77.678 37.4723 76.4698 36.3411 75.3868 35.8495C74.2629 35.3394 71.9556 35.2847 70.9014 35.7432ZM74.5778 39.616L75.2642 40.3019V57.1151V73.9284L74.5778 74.6143C73.6943 75.497 72.5209 75.5437 71.5787 74.7339L70.9198 74.1675V57.1151V40.0628L71.5787 39.4963C72.5209 38.6866 73.6943 38.7333 74.5778 39.616ZM67.2798 57.0802V70.3026L59.2368 66.9594L51.1937 63.6162V57.0959V50.5753L59.1781 47.242C63.5695 45.4087 67.189 43.8973 67.2211 43.8833C67.2533 43.8692 67.2798 49.8078 67.2798 57.0802ZM47.4991 57.0565L47.562 62.8639H44.424C40.1544 62.8639 40.4123 63.2159 40.3195 57.2569C40.2512 52.877 40.2728 52.6043 40.7352 52.017C41.3441 51.2434 41.6647 51.1812 44.8532 51.2187L47.4364 51.249L47.4991 57.0565ZM80.0052 51.9837C81.1919 52.8052 82.2268 54.4151 82.541 55.9276C83.0783 58.5131 81.7611 61.3392 79.4663 62.5249L78.7867 62.8759V57.1212C78.7867 53.9561 78.8602 51.3663 78.9501 51.3663C79.0401 51.3663 79.5149 51.6441 80.0052 51.9837ZM10.0774 55.5822C12.4619 56.4882 13.6861 59.6451 12.5887 62.0593C11.0407 65.4652 6.43726 65.7942 4.23029 62.6565C3.61057 61.7754 3.5225 61.4509 3.5225 60.0482C3.5225 58.6455 3.61057 58.321 4.23029 57.4399C5.61652 55.4691 7.88384 54.7487 10.0774 55.5822ZM114.119 55.9069C114.63 56.1843 115.369 56.869 115.763 57.4286C116.39 58.3217 116.477 58.6422 116.477 60.0482C116.477 61.4509 116.389 61.7754 115.77 62.6565C114.058 65.0893 110.946 65.568 108.726 63.7396C104.252 60.0545 109.015 53.1355 114.119 55.9069ZM47.4364 72.2899V78.0788L46.8672 78.6839C45.9353 79.6744 44.5017 79.4407 43.8348 78.19C43.5332 77.624 43.4334 66.8245 43.7272 66.531C43.8183 66.4402 44.69 66.396 45.6646 66.4333L47.4364 66.5009V72.2899ZM108.141 94.6874C110.333 95.7222 111.952 97.2781 112.962 99.3191C116.134 105.732 112.321 113.015 105.264 114.023C100.997 114.632 96.5791 112.206 94.687 108.215C93.9748 106.712 93.9335 106.477 93.9335 103.927C93.9335 101.376 93.9748 101.141 94.687 99.6389C95.5491 97.8204 97.4168 95.8104 99 94.9974C100.879 94.0323 101.806 93.8401 104.266 93.9049C106.326 93.9591 106.802 94.0551 108.141 94.6874ZM62.0128 107.421C65.4214 108.968 65.7506 113.568 62.6104 115.773C61.7286 116.392 61.4038 116.48 60 116.48C58.5962 116.48 58.2714 116.392 57.3896 115.773C54.9548 114.063 54.4758 110.953 56.3056 108.735C57.1994 107.652 58.6032 106.988 60 106.988C60.5812 106.988 61.487 107.183 62.0128 107.421Z" fill="#2BF06E"/>
</g>
<defs>
<clipPath id="clip0_26_36">
<rect width="120" height="120" fill="white"/>
</clipPath>
</defs>
</svg>
