<svg width="120" height="120" viewBox="0 0 120 120" fill="none" xmlns="http://www.w3.org/2000/svg">
<g clip-path="url(#clip0_26_34)">
<path fill-rule="evenodd" clip-rule="evenodd" d="M57.96 0.276355C55.7394 1.09812 53.8987 3.42478 53.8987 5.41011C53.8987 6.28366 53.8893 6.29237 52.7846 6.43691C43.3135 7.67603 33.6926 11.7959 26.115 17.8574C15.2963 26.5113 7.94524 39.5447 6.16858 53.2226C6.02903 54.2967 5.99338 54.3407 5.26278 54.3407C3.39793 54.3407 1.06259 56.2453 0.264916 58.4168C-0.0883052 59.3787 -0.0883052 61.308 0.264916 62.2698C1.06259 64.4413 3.39793 66.3459 5.26278 66.3459C5.99338 66.3459 6.02903 66.3899 6.16858 67.4641C6.8694 72.8603 8.757 79.1173 11.1962 84.1306C19.1536 100.484 34.7295 111.768 52.7562 114.238C53.7945 114.381 53.848 114.426 53.9829 115.271C54.0603 115.757 54.4435 116.639 54.8347 117.232C56.9395 120.421 61.3105 120.945 63.9955 118.33C64.9939 117.357 65.8463 115.799 65.8552 114.929C65.8596 114.491 66.0766 114.398 67.6781 114.147C73.5008 113.236 78.5027 111.679 83.5683 109.201C99.8932 101.214 111.108 85.6204 113.583 67.4641C113.734 66.3612 113.748 66.3459 114.601 66.3407C117.103 66.3259 119.568 63.9075 119.953 61.0914C120.397 57.8418 117.62 54.3407 114.599 54.3407C114.109 54.3407 113.707 54.248 113.707 54.1348C113.707 54.0215 113.486 52.6181 113.215 51.0158C111.712 42.1232 107.486 32.8102 101.877 26.0343C100.715 24.6302 100.467 24.4454 99.7466 24.4454C99.2435 24.4454 98.7509 24.626 98.4618 24.9162C97.6134 25.7676 97.8552 26.548 99.7236 28.9909C101.717 31.5979 103.953 35.0199 103.777 35.1962C103.711 35.2623 100.087 36.3054 95.7237 37.5141L87.7901 39.7118L86.7459 38.4931C85.4287 36.956 83.2256 34.7489 81.646 33.3841L80.4273 32.3312L82.6215 24.3687C83.8282 19.9894 84.8721 16.3497 84.9413 16.2802C85.1301 16.0907 89.3819 18.9536 91.7613 20.8728C92.924 21.8102 94.0843 22.5622 94.3685 22.5622C95.2516 22.5622 96.1163 21.6873 96.1163 20.7935C96.1163 20.1214 95.9064 19.8154 94.7389 18.7837C88.1492 12.9621 78.7374 8.54158 69.3198 6.84461L65.8603 6.22128V5.37527C65.8603 4.07282 64.7831 2.14093 63.5806 1.28738C62.2156 0.318255 61.3008 0 59.8795 0C59.2345 0 58.3707 0.124289 57.96 0.276355ZM61.5448 4.29551C61.9834 4.7357 62.3422 5.3183 62.3422 5.59019C62.3422 6.06098 62.2249 6.08452 59.8795 6.08452C57.5341 6.08452 57.4168 6.06098 57.4168 5.59019C57.4168 5.3183 57.7757 4.7357 58.2143 4.29551C59.3236 3.18208 60.4354 3.18208 61.5448 4.29551ZM68.2058 10.1945C71.3864 10.7411 75.4201 11.8498 78.0331 12.8959C81.1002 14.1238 81.5747 14.3587 81.5747 14.6494C81.5747 15.0093 77.5577 29.7623 77.382 30.0476C77.2941 30.1907 76.3451 29.848 75.0073 29.1898C65.5031 24.5144 54.1808 24.5356 44.635 29.2466C43.359 29.8765 42.4668 30.1933 42.3777 30.0488C42.1997 29.76 38.1843 15.0081 38.1843 14.6438C38.1843 14.369 39.873 13.5593 42.5234 12.5626C44.725 11.7347 48.8227 10.6564 51.5533 10.1863C56.1714 9.39136 63.5529 9.39513 68.2058 10.1945ZM35.1247 17.0893C35.2579 17.5749 36.2578 21.2028 37.3468 25.1516L39.3268 32.3312L37.9932 33.5009C36.3054 34.9815 34.6237 36.6684 33.1344 38.3743L31.969 39.7092L24.0346 37.512C19.6705 36.3035 16.0412 35.2555 15.9692 35.1835C15.8974 35.1112 16.7399 33.6984 17.8415 32.0438C21.502 26.5468 26.1319 21.8909 31.6171 18.1912C33.2296 17.1036 34.624 16.2122 34.7157 16.2101C34.8076 16.2082 34.9915 16.6039 35.1247 17.0893ZM66.0705 29.8546C75.5507 31.7935 83.4302 37.927 87.6864 46.6809C89.2374 49.871 90.0661 52.5204 90.5736 55.9127C90.9949 58.7264 91.064 58.9152 91.8012 59.2523C92.6186 59.6258 92.9146 59.5901 93.622 59.0315C94.1391 58.6233 94.24 58.3559 94.24 57.3922C94.24 54.4459 92.6946 48.8011 90.8588 45.0426C90.2898 43.8774 89.8648 42.8828 89.9146 42.8324C90.0417 42.7041 105.06 38.5692 105.399 38.5692C106.04 38.5692 108.62 45.8283 109.46 49.9958C110.21 53.7197 110.43 56.0596 110.433 60.3433C110.436 65.124 110.001 68.758 108.916 73.002C107.81 77.3281 105.966 82.1177 105.407 82.1172C105.077 82.117 90.0379 77.9787 89.915 77.8544C89.8651 77.8041 90.2898 76.8093 90.8588 75.6441C92.4673 72.3506 94.0054 67.231 94.0054 65.1706C94.0054 64.3921 93.0736 63.5212 92.2408 63.5212C91.2003 63.5212 90.762 64.2142 90.2345 66.6941C87.6348 78.9163 78.2949 88.2429 66.0325 90.8615C62.6356 91.587 57.1234 91.587 53.7265 90.8615C41.4173 88.233 32.0909 78.8728 29.472 66.5187C28.7492 63.1095 28.7492 57.5772 29.472 54.1679C30.6271 48.7192 33.0966 43.7599 36.626 39.8008C41.9842 33.7906 48.6107 30.3663 56.9477 29.3002C58.6909 29.0773 63.783 29.3866 66.0705 29.8546ZM57.1823 32.8326C52.988 33.4354 50.1664 34.2784 47.2557 35.7983C43.7915 37.6071 39.5916 41.1769 39.5916 42.3122C39.5916 42.8616 40.4925 43.9416 40.9988 43.9991C41.872 44.0984 42.26 43.9058 43.5223 42.7468C45.4483 40.9782 46.9468 39.9305 49.0906 38.8538C60.779 32.9821 74.89 37.476 81.008 49.0187C83.0056 52.7876 83.7993 56.0073 83.7993 60.3433C83.7993 64.6793 83.0056 67.8991 81.008 71.668C77.6048 78.0887 71.7129 82.4595 64.3358 84.0357C63.5618 84.2012 61.5565 84.3365 59.8795 84.3365C56.7521 84.3365 55.1579 84.1011 52.4914 83.2462C44.4469 80.6669 38.1862 73.691 36.4138 65.3316C35.3574 60.348 36.0212 54.4059 38.0945 50.2879C39.1345 48.2223 38.6701 46.808 36.9516 46.808C35.8732 46.808 35.3989 47.3937 34.4089 49.9466C30.9761 58.7998 31.9202 67.9268 37.0719 75.693C43.5042 85.3899 55.476 89.9623 66.821 87.0549C74.9226 84.9789 82.2197 78.5465 85.3299 70.7389C87.5938 65.0564 87.9843 59.2334 86.4942 53.3765C84.1131 44.0165 76.1554 36.0137 66.8764 33.6482C63.7499 32.8512 59.5261 32.4957 57.1823 32.8326ZM22.1121 40.6082C26.2433 41.7296 29.6948 42.7096 29.7821 42.7856C29.8693 42.8616 29.4723 43.8774 28.8995 45.0426C26.5088 49.9061 25.4372 54.6366 25.4332 60.3433C25.4294 65.9719 26.5273 70.8182 28.8995 75.6441C29.4723 76.8093 29.8693 77.825 29.7821 77.901C29.6027 78.0578 14.7397 82.1175 14.3457 82.1175C13.7788 82.1175 11.7378 76.7492 10.7246 72.5936C9.73504 68.5356 9.32342 64.9361 9.32342 60.3433C9.32342 55.734 9.73504 52.1506 10.7372 48.0411C11.7371 43.94 13.7713 38.5692 14.3246 38.5692C14.4765 38.5692 17.9808 39.4868 22.1121 40.6082ZM5.81747 60.3433C5.81747 63.1862 5.63406 63.3842 4.26949 62.0146C3.16011 60.9012 3.16011 59.7854 4.26949 58.672C5.63406 57.3025 5.81747 57.5004 5.81747 60.3433ZM115.724 58.672C116.344 59.2937 116.522 59.6666 116.522 60.3433C116.522 61.0201 116.344 61.393 115.724 62.0146C115.285 62.4548 114.705 62.815 114.434 62.815C113.965 62.815 113.942 62.6973 113.942 60.3433C113.942 57.9894 113.965 57.8717 114.434 57.8717C114.705 57.8717 115.285 58.2318 115.724 58.672ZM35.4798 84.8318C36.1288 85.4832 37.2602 86.5424 37.9944 87.1858L39.3289 88.3555L37.1362 96.318C35.9301 100.697 34.8846 104.339 34.8125 104.412C34.5996 104.626 29.5689 101.146 27.1411 99.1058C24.7443 97.0915 22.2408 94.512 20.2233 91.9782C18.6791 90.039 15.8087 85.6644 15.9725 85.5001C16.0393 85.4328 19.666 84.386 24.0316 83.1737L31.969 80.9697L33.1344 82.3086C33.7754 83.0449 34.8308 84.1805 35.4798 84.8318ZM97.8299 83.7605C101.03 84.6407 103.706 85.4196 103.778 85.4914C103.926 85.6404 101.171 89.9335 99.9004 91.5333C98.0051 93.9197 95.6329 96.4415 93.4191 98.4238C91.1302 100.473 85.2038 104.67 84.9533 104.418C84.8459 104.311 83.1764 98.3605 81.0308 90.4375L80.447 88.2825L82.4549 86.5535C83.5592 85.6025 85.1892 83.9592 86.0772 82.9016L87.6913 80.9786L89.8517 81.5695C91.0397 81.8943 94.63 82.8804 97.8299 83.7605ZM44.7745 91.4782C49.5695 93.8616 54.2587 94.9294 59.8795 94.9174C65.5189 94.9051 70.323 93.8093 75.1241 91.4401C76.4 90.8102 77.2922 90.4933 77.3813 90.6379C77.5593 90.9267 81.5747 105.678 81.5747 106.043C81.5747 106.612 76.2259 108.66 72.0853 109.677C68.0421 110.67 64.4557 111.083 59.8795 111.083C55.1061 111.083 51.4754 110.643 47.2668 109.554C42.9566 108.438 38.1843 106.59 38.1843 106.036C38.1843 105.765 41.7543 92.4961 42.2004 91.1091C42.3381 90.6816 42.5196 90.3643 42.6043 90.4039C42.6887 90.4434 43.6654 90.9269 44.7745 91.4782ZM62.1175 115.055C61.7183 115.803 60.6812 116.485 59.9426 116.485C59.0593 116.485 57.9982 115.861 57.6765 115.152L57.4269 114.602H59.8929C62.2528 114.602 62.3483 114.622 62.1175 115.055Z" fill="#706DF9"/>
</g>
<defs>
<clipPath id="clip0_26_34">
<rect width="120" height="120" fill="white"/>
</clipPath>
</defs>
</svg>
